<svg id="visual" viewBox="0 0 900 600" width="900" height="600" xmlns="http://www.w3.org/2000/svg" xmlns:xlink="http://www.w3.org/1999/xlink" version="1.1"><rect x="0" y="0" width="900" height="600" fill="#001829"></rect><g fill="#297EA6"><path d="M5.9 3.4L5.9 15.3L-5.9 15.3L-5.9 3.4L-16.2 -2.5L-10.3 -12.8L0 -6.9L10.3 -12.8L16.2 -2.5Z" transform="translate(414 346)"></path><path d="M0.5 0.3L0.5 1.4L-0.5 1.4L-0.5 0.3L-1.5 -0.2L-0.9 -1.2L0 -0.6L0.9 -1.2L1.5 -0.2Z" transform="translate(769 173)"></path><path d="M4.9 2.8L4.9 12.5L-4.9 12.5L-4.9 2.8L-13.3 -2.1L-8.4 -10.5L0 -5.6L8.4 -10.5L13.3 -2.1Z" transform="translate(774 319)"></path><path d="M3.5 2L3.5 9L-3.5 9L-3.5 2L-9.6 -1.5L-6.1 -7.6L0 -4.1L6.1 -7.6L9.6 -1.5Z" transform="translate(520 547)"></path><path d="M5.1 3L5.1 13.2L-5.1 13.2L-5.1 3L-14 -2.2L-8.9 -11L0 -5.9L8.9 -11L14 -2.2Z" transform="translate(226 302)"></path><path d="M0.8 0.5L0.8 2.1L-0.8 2.1L-0.8 0.5L-2.2 -0.3L-1.4 -1.7L0 -0.9L1.4 -1.7L2.2 -0.3Z" transform="translate(117 396)"></path><path d="M0.3 0.2L0.3 0.7L-0.3 0.7L-0.3 0.2L-0.7 -0.1L-0.5 -0.6L0 -0.3L0.5 -0.6L0.7 -0.1Z" transform="translate(353 421)"></path><path d="M2.4 1.4L2.4 6.3L-2.4 6.3L-2.4 1.4L-6.6 -1L-4.2 -5.2L0 -2.8L4.2 -5.2L6.6 -1Z" transform="translate(664 338)"></path><path d="M4 2.3L4 10.4L-4 10.4L-4 2.3L-11.1 -1.7L-7 -8.7L0 -4.7L7 -8.7L11.1 -1.7Z" transform="translate(38 159)"></path><path d="M2.4 1.4L2.4 6.3L-2.4 6.3L-2.4 1.4L-6.6 -1L-4.2 -5.2L0 -2.8L4.2 -5.2L6.6 -1Z" transform="translate(645 118)"></path><path d="M5.1 3L5.1 13.2L-5.1 13.2L-5.1 3L-14 -2.2L-8.9 -11L0 -5.9L8.9 -11L14 -2.2Z" transform="translate(531 495)"></path><path d="M3.2 1.9L3.2 8.3L-3.2 8.3L-3.2 1.9L-8.8 -1.4L-5.6 -7L0 -3.7L5.6 -7L8.8 -1.4Z" transform="translate(51 256)"></path><path d="M3.2 1.9L3.2 8.3L-3.2 8.3L-3.2 1.9L-8.8 -1.4L-5.6 -7L0 -3.7L5.6 -7L8.8 -1.4Z" transform="translate(222 436)"></path><path d="M2.2 1.2L2.2 5.6L-2.2 5.6L-2.2 1.2L-5.9 -0.9L-3.7 -4.7L0 -2.5L3.7 -4.7L5.9 -0.9Z" transform="translate(464 185)"></path><path d="M1.3 0.8L1.3 3.5L-1.3 3.5L-1.3 0.8L-3.7 -0.6L-2.3 -2.9L0 -1.6L2.3 -2.9L3.7 -0.6Z" transform="translate(428 21)"></path><path d="M4.3 2.5L4.3 11.1L-4.3 11.1L-4.3 2.5L-11.8 -1.8L-7.5 -9.3L0 -5L7.5 -9.3L11.8 -1.8Z" transform="translate(345 166)"></path><path d="M4 2.3L4 10.4L-4 10.4L-4 2.3L-11.1 -1.7L-7 -8.7L0 -4.7L7 -8.7L11.1 -1.7Z" transform="translate(166 64)"></path><path d="M3.2 1.9L3.2 8.3L-3.2 8.3L-3.2 1.9L-8.8 -1.4L-5.6 -7L0 -3.7L5.6 -7L8.8 -1.4Z" transform="translate(448 554)"></path><path d="M5.4 3.1L5.4 13.9L-5.4 13.9L-5.4 3.1L-14.7 -2.3L-9.3 -11.6L0 -6.2L9.3 -11.6L14.7 -2.3Z" transform="translate(191 384)"></path><path d="M1.9 1.1L1.9 4.9L-1.9 4.9L-1.9 1.1L-5.2 -0.8L-3.3 -4.1L0 -2.2L3.3 -4.1L5.2 -0.8Z" transform="translate(122 577)"></path><path d="M0.5 0.3L0.5 1.4L-0.5 1.4L-0.5 0.3L-1.5 -0.2L-0.9 -1.2L0 -0.6L0.9 -1.2L1.5 -0.2Z" transform="translate(889 431)"></path><path d="M4 2.3L4 10.4L-4 10.4L-4 2.3L-11.1 -1.7L-7 -8.7L0 -4.7L7 -8.7L11.1 -1.7Z" transform="translate(722 419)"></path><path d="M3.8 2.2L3.8 9.7L-3.8 9.7L-3.8 2.2L-10.3 -1.6L-6.5 -8.1L0 -4.4L6.5 -8.1L10.3 -1.6Z" transform="translate(454 244)"></path><path d="M4.9 2.8L4.9 12.5L-4.9 12.5L-4.9 2.8L-13.3 -2.1L-8.4 -10.5L0 -5.6L8.4 -10.5L13.3 -2.1Z" transform="translate(142 479)"></path><path d="M0.3 0.2L0.3 0.7L-0.3 0.7L-0.3 0.2L-0.7 -0.1L-0.5 -0.6L0 -0.3L0.5 -0.6L0.7 -0.1Z" transform="translate(755 38)"></path><path d="M1.1 0.6L1.1 2.8L-1.1 2.8L-1.1 0.6L-2.9 -0.5L-1.9 -2.3L0 -1.2L1.9 -2.3L2.9 -0.5Z" transform="translate(704 297)"></path><path d="M5.4 3.1L5.4 13.9L-5.4 13.9L-5.4 3.1L-14.7 -2.3L-9.3 -11.6L0 -6.2L9.3 -11.6L14.7 -2.3Z" transform="translate(29 294)"></path><path d="M2.2 1.2L2.2 5.6L-2.2 5.6L-2.2 1.2L-5.9 -0.9L-3.7 -4.7L0 -2.5L3.7 -4.7L5.9 -0.9Z" transform="translate(606 395)"></path><path d="M4 2.3L4 10.4L-4 10.4L-4 2.3L-11.1 -1.7L-7 -8.7L0 -4.7L7 -8.7L11.1 -1.7Z" transform="translate(305 543)"></path><path d="M2.7 1.6L2.7 7L-2.7 7L-2.7 1.6L-7.4 -1.1L-4.7 -5.8L0 -3.1L4.7 -5.8L7.4 -1.1Z" transform="translate(151 272)"></path><path d="M5.1 3L5.1 13.2L-5.1 13.2L-5.1 3L-14 -2.2L-8.9 -11L0 -5.9L8.9 -11L14 -2.2Z" transform="translate(555 364)"></path><path d="M0.3 0.2L0.3 0.7L-0.3 0.7L-0.3 0.2L-0.7 -0.1L-0.5 -0.6L0 -0.3L0.5 -0.6L0.7 -0.1Z" transform="translate(194 205)"></path><path d="M1.6 0.9L1.6 4.2L-1.6 4.2L-1.6 0.9L-4.4 -0.7L-2.8 -3.5L0 -1.9L2.8 -3.5L4.4 -0.7Z" transform="translate(703 101)"></path><path d="M3.8 2.2L3.8 9.7L-3.8 9.7L-3.8 2.2L-10.3 -1.6L-6.5 -8.1L0 -4.4L6.5 -8.1L10.3 -1.6Z" transform="translate(396 558)"></path><path d="M3.2 1.9L3.2 8.3L-3.2 8.3L-3.2 1.9L-8.8 -1.4L-5.6 -7L0 -3.7L5.6 -7L8.8 -1.4Z" transform="translate(325 333)"></path><path d="M5.4 3.1L5.4 13.9L-5.4 13.9L-5.4 3.1L-14.7 -2.3L-9.3 -11.6L0 -6.2L9.3 -11.6L14.7 -2.3Z" transform="translate(270 53)"></path><path d="M3 1.7L3 7.7L-3 7.7L-3 1.7L-8.1 -1.3L-5.1 -6.4L0 -3.4L5.1 -6.4L8.1 -1.3Z" transform="translate(357 62)"></path><path d="M3 1.7L3 7.7L-3 7.7L-3 1.7L-8.1 -1.3L-5.1 -6.4L0 -3.4L5.1 -6.4L8.1 -1.3Z" transform="translate(278 300)"></path><path d="M2.2 1.2L2.2 5.6L-2.2 5.6L-2.2 1.2L-5.9 -0.9L-3.7 -4.7L0 -2.5L3.7 -4.7L5.9 -0.9Z" transform="translate(349 242)"></path><path d="M0.5 0.3L0.5 1.4L-0.5 1.4L-0.5 0.3L-1.5 -0.2L-0.9 -1.2L0 -0.6L0.9 -1.2L1.5 -0.2Z" transform="translate(711 563)"></path><path d="M0.3 0.2L0.3 0.7L-0.3 0.7L-0.3 0.2L-0.7 -0.1L-0.5 -0.6L0 -0.3L0.5 -0.6L0.7 -0.1Z" transform="translate(498 266)"></path><path d="M5.1 3L5.1 13.2L-5.1 13.2L-5.1 3L-14 -2.2L-8.9 -11L0 -5.9L8.9 -11L14 -2.2Z" transform="translate(625 254)"></path><path d="M3.5 2L3.5 9L-3.5 9L-3.5 2L-9.6 -1.5L-6.1 -7.6L0 -4.1L6.1 -7.6L9.6 -1.5Z" transform="translate(127 351)"></path><path d="M1.6 0.9L1.6 4.2L-1.6 4.2L-1.6 0.9L-4.4 -0.7L-2.8 -3.5L0 -1.9L2.8 -3.5L4.4 -0.7Z" transform="translate(263 526)"></path><path d="M1.1 0.6L1.1 2.8L-1.1 2.8L-1.1 0.6L-2.9 -0.5L-1.9 -2.3L0 -1.2L1.9 -2.3L2.9 -0.5Z" transform="translate(750 379)"></path><path d="M2.4 1.4L2.4 6.3L-2.4 6.3L-2.4 1.4L-6.6 -1L-4.2 -5.2L0 -2.8L4.2 -5.2L6.6 -1Z" transform="translate(539 251)"></path><path d="M4.3 2.5L4.3 11.1L-4.3 11.1L-4.3 2.5L-11.8 -1.8L-7.5 -9.3L0 -5L7.5 -9.3L11.8 -1.8Z" transform="translate(231 251)"></path><path d="M2.7 1.6L2.7 7L-2.7 7L-2.7 1.6L-7.4 -1.1L-4.7 -5.8L0 -3.1L4.7 -5.8L7.4 -1.1Z" transform="translate(33 384)"></path><path d="M5.4 3.1L5.4 13.9L-5.4 13.9L-5.4 3.1L-14.7 -2.3L-9.3 -11.6L0 -6.2L9.3 -11.6L14.7 -2.3Z" transform="translate(412 217)"></path><path d="M4.6 2.6L4.6 11.8L-4.6 11.8L-4.6 2.6L-12.5 -1.9L-7.9 -9.9L0 -5.3L7.9 -9.9L12.5 -1.9Z" transform="translate(829 535)"></path><path d="M5.1 3L5.1 13.2L-5.1 13.2L-5.1 3L-14 -2.2L-8.9 -11L0 -5.9L8.9 -11L14 -2.2Z" transform="translate(503 379)"></path><path d="M3.8 2.2L3.8 9.7L-3.8 9.7L-3.8 2.2L-10.3 -1.6L-6.5 -8.1L0 -4.4L6.5 -8.1L10.3 -1.6Z" transform="translate(273 371)"></path><path d="M5.1 3L5.1 13.2L-5.1 13.2L-5.1 3L-14 -2.2L-8.9 -11L0 -5.9L8.9 -11L14 -2.2Z" transform="translate(624 460)"></path><path d="M1.6 0.9L1.6 4.2L-1.6 4.2L-1.6 0.9L-4.4 -0.7L-2.8 -3.5L0 -1.9L2.8 -3.5L4.4 -0.7Z" transform="translate(21 76)"></path><path d="M1.3 0.8L1.3 3.5L-1.3 3.5L-1.3 0.8L-3.7 -0.6L-2.3 -2.9L0 -1.6L2.3 -2.9L3.7 -0.6Z" transform="translate(419 166)"></path><path d="M0.5 0.3L0.5 1.4L-0.5 1.4L-0.5 0.3L-1.5 -0.2L-0.9 -1.2L0 -0.6L0.9 -1.2L1.5 -0.2Z" transform="translate(635 585)"></path><path d="M1.9 1.1L1.9 4.9L-1.9 4.9L-1.9 1.1L-5.2 -0.8L-3.3 -4.1L0 -2.2L3.3 -4.1L5.2 -0.8Z" transform="translate(339 478)"></path><path d="M2.7 1.6L2.7 7L-2.7 7L-2.7 1.6L-7.4 -1.1L-4.7 -5.8L0 -3.1L4.7 -5.8L7.4 -1.1Z" transform="translate(656 222)"></path><path d="M4.6 2.6L4.6 11.8L-4.6 11.8L-4.6 2.6L-12.5 -1.9L-7.9 -9.9L0 -5.3L7.9 -9.9L12.5 -1.9Z" transform="translate(819 255)"></path><path d="M4.9 2.8L4.9 12.5L-4.9 12.5L-4.9 2.8L-13.3 -2.1L-8.4 -10.5L0 -5.6L8.4 -10.5L13.3 -2.1Z" transform="translate(461 454)"></path><path d="M0.8 0.5L0.8 2.1L-0.8 2.1L-0.8 0.5L-2.2 -0.3L-1.4 -1.7L0 -0.9L1.4 -1.7L2.2 -0.3Z" transform="translate(599 520)"></path><path d="M5.1 3L5.1 13.2L-5.1 13.2L-5.1 3L-14 -2.2L-8.9 -11L0 -5.9L8.9 -11L14 -2.2Z" transform="translate(156 121)"></path><path d="M1.6 0.9L1.6 4.2L-1.6 4.2L-1.6 0.9L-4.4 -0.7L-2.8 -3.5L0 -1.9L2.8 -3.5L4.4 -0.7Z" transform="translate(299 592)"></path><path d="M1.9 1.1L1.9 4.9L-1.9 4.9L-1.9 1.1L-5.2 -0.8L-3.3 -4.1L0 -2.2L3.3 -4.1L5.2 -0.8Z" transform="translate(498 27)"></path><path d="M1.9 1.1L1.9 4.9L-1.9 4.9L-1.9 1.1L-5.2 -0.8L-3.3 -4.1L0 -2.2L3.3 -4.1L5.2 -0.8Z" transform="translate(666 523)"></path><path d="M3.5 2L3.5 9L-3.5 9L-3.5 2L-9.6 -1.5L-6.1 -7.6L0 -4.1L6.1 -7.6L9.6 -1.5Z" transform="translate(715 167)"></path><path d="M5.1 3L5.1 13.2L-5.1 13.2L-5.1 3L-14 -2.2L-8.9 -11L0 -5.9L8.9 -11L14 -2.2Z" transform="translate(237 82)"></path><path d="M1.3 0.8L1.3 3.5L-1.3 3.5L-1.3 0.8L-3.7 -0.6L-2.3 -2.9L0 -1.6L2.3 -2.9L3.7 -0.6Z" transform="translate(797 385)"></path><path d="M5.4 3.1L5.4 13.9L-5.4 13.9L-5.4 3.1L-14.7 -2.3L-9.3 -11.6L0 -6.2L9.3 -11.6L14.7 -2.3Z" transform="translate(301 260)"></path><path d="M1.9 1.1L1.9 4.9L-1.9 4.9L-1.9 1.1L-5.2 -0.8L-3.3 -4.1L0 -2.2L3.3 -4.1L5.2 -0.8Z" transform="translate(777 238)"></path><path d="M0.5 0.3L0.5 1.4L-0.5 1.4L-0.5 0.3L-1.5 -0.2L-0.9 -1.2L0 -0.6L0.9 -1.2L1.5 -0.2Z" transform="translate(463 401)"></path><path d="M4.3 2.5L4.3 11.1L-4.3 11.1L-4.3 2.5L-11.8 -1.8L-7.5 -9.3L0 -5L7.5 -9.3L11.8 -1.8Z" transform="translate(272 223)"></path><path d="M3.2 1.9L3.2 8.3L-3.2 8.3L-3.2 1.9L-8.8 -1.4L-5.6 -7L0 -3.7L5.6 -7L8.8 -1.4Z" transform="translate(195 529)"></path><path d="M0.8 0.5L0.8 2.1L-0.8 2.1L-0.8 0.5L-2.2 -0.3L-1.4 -1.7L0 -0.9L1.4 -1.7L2.2 -0.3Z" transform="translate(787 467)"></path><path d="M4.9 2.8L4.9 12.5L-4.9 12.5L-4.9 2.8L-13.3 -2.1L-8.4 -10.5L0 -5.6L8.4 -10.5L13.3 -2.1Z" transform="translate(474 129)"></path><path d="M5.4 3.1L5.4 13.9L-5.4 13.9L-5.4 3.1L-14.7 -2.3L-9.3 -11.6L0 -6.2L9.3 -11.6L14.7 -2.3Z" transform="translate(842 328)"></path><path d="M5.4 3.1L5.4 13.9L-5.4 13.9L-5.4 3.1L-14.7 -2.3L-9.3 -11.6L0 -6.2L9.3 -11.6L14.7 -2.3Z" transform="translate(171 431)"></path><path d="M3.2 1.9L3.2 8.3L-3.2 8.3L-3.2 1.9L-8.8 -1.4L-5.6 -7L0 -3.7L5.6 -7L8.8 -1.4Z" transform="translate(543 103)"></path><path d="M4.9 2.8L4.9 12.5L-4.9 12.5L-4.9 2.8L-13.3 -2.1L-8.4 -10.5L0 -5.6L8.4 -10.5L13.3 -2.1Z" transform="translate(215 482)"></path><path d="M4.3 2.5L4.3 11.1L-4.3 11.1L-4.3 2.5L-11.8 -1.8L-7.5 -9.3L0 -5L7.5 -9.3L11.8 -1.8Z" transform="translate(202 132)"></path><path d="M0.8 0.5L0.8 2.1L-0.8 2.1L-0.8 0.5L-2.2 -0.3L-1.4 -1.7L0 -0.9L1.4 -1.7L2.2 -0.3Z" transform="translate(757 117)"></path><path d="M5.4 3.1L5.4 13.9L-5.4 13.9L-5.4 3.1L-14.7 -2.3L-9.3 -11.6L0 -6.2L9.3 -11.6L14.7 -2.3Z" transform="translate(547 317)"></path><path d="M0.8 0.5L0.8 2.1L-0.8 2.1L-0.8 0.5L-2.2 -0.3L-1.4 -1.7L0 -0.9L1.4 -1.7L2.2 -0.3Z" transform="translate(893 208)"></path><path d="M1.6 0.9L1.6 4.2L-1.6 4.2L-1.6 0.9L-4.4 -0.7L-2.8 -3.5L0 -1.9L2.8 -3.5L4.4 -0.7Z" transform="translate(118 52)"></path><path d="M2.2 1.2L2.2 5.6L-2.2 5.6L-2.2 1.2L-5.9 -0.9L-3.7 -4.7L0 -2.5L3.7 -4.7L5.9 -0.9Z" transform="translate(655 47)"></path><path d="M4.9 2.8L4.9 12.5L-4.9 12.5L-4.9 2.8L-13.3 -2.1L-8.4 -10.5L0 -5.6L8.4 -10.5L13.3 -2.1Z" transform="translate(474 69)"></path><path d="M4.9 2.8L4.9 12.5L-4.9 12.5L-4.9 2.8L-13.3 -2.1L-8.4 -10.5L0 -5.6L8.4 -10.5L13.3 -2.1Z" transform="translate(98 298)"></path><path d="M1.9 1.1L1.9 4.9L-1.9 4.9L-1.9 1.1L-5.2 -0.8L-3.3 -4.1L0 -2.2L3.3 -4.1L5.2 -0.8Z" transform="translate(467 299)"></path><path d="M4 2.3L4 10.4L-4 10.4L-4 2.3L-11.1 -1.7L-7 -8.7L0 -4.7L7 -8.7L11.1 -1.7Z" transform="translate(795 86)"></path><path d="M1.3 0.8L1.3 3.5L-1.3 3.5L-1.3 0.8L-3.7 -0.6L-2.3 -2.9L0 -1.6L2.3 -2.9L3.7 -0.6Z" transform="translate(860 71)"></path><path d="M1.1 0.6L1.1 2.8L-1.1 2.8L-1.1 0.6L-2.9 -0.5L-1.9 -2.3L0 -1.2L1.9 -2.3L2.9 -0.5Z" transform="translate(66 463)"></path><path d="M2.2 1.2L2.2 5.6L-2.2 5.6L-2.2 1.2L-5.9 -0.9L-3.7 -4.7L0 -2.5L3.7 -4.7L5.9 -0.9Z" transform="translate(72 101)"></path><path d="M3 1.7L3 7.7L-3 7.7L-3 1.7L-8.1 -1.3L-5.1 -6.4L0 -3.4L5.1 -6.4L8.1 -1.3Z" transform="translate(879 118)"></path><path d="M0.8 0.5L0.8 2.1L-0.8 2.1L-0.8 0.5L-2.2 -0.3L-1.4 -1.7L0 -0.9L1.4 -1.7L2.2 -0.3Z" transform="translate(345 18)"></path><path d="M1.9 1.1L1.9 4.9L-1.9 4.9L-1.9 1.1L-5.2 -0.8L-3.3 -4.1L0 -2.2L3.3 -4.1L5.2 -0.8Z" transform="translate(114 163)"></path><path d="M5.1 3L5.1 13.2L-5.1 13.2L-5.1 3L-14 -2.2L-8.9 -11L0 -5.9L8.9 -11L14 -2.2Z" transform="translate(268 167)"></path><path d="M4.9 2.8L4.9 12.5L-4.9 12.5L-4.9 2.8L-13.3 -2.1L-8.4 -10.5L0 -5.6L8.4 -10.5L13.3 -2.1Z" transform="translate(603 304)"></path><path d="M0.8 0.5L0.8 2.1L-0.8 2.1L-0.8 0.5L-2.2 -0.3L-1.4 -1.7L0 -0.9L1.4 -1.7L2.2 -0.3Z" transform="translate(410 404)"></path><path d="M0.5 0.3L0.5 1.4L-0.5 1.4L-0.5 0.3L-1.5 -0.2L-0.9 -1.2L0 -0.6L0.9 -1.2L1.5 -0.2Z" transform="translate(570 62)"></path><path d="M0.5 0.3L0.5 1.4L-0.5 1.4L-0.5 0.3L-1.5 -0.2L-0.9 -1.2L0 -0.6L0.9 -1.2L1.5 -0.2Z" transform="translate(587 10)"></path><path d="M3 1.7L3 7.7L-3 7.7L-3 1.7L-8.1 -1.3L-5.1 -6.4L0 -3.4L5.1 -6.4L8.1 -1.3Z" transform="translate(13 586)"></path><path d="M4.9 2.8L4.9 12.5L-4.9 12.5L-4.9 2.8L-13.3 -2.1L-8.4 -10.5L0 -5.6L8.4 -10.5L13.3 -2.1Z" transform="translate(684 449)"></path><path d="M4 2.3L4 10.4L-4 10.4L-4 2.3L-11.1 -1.7L-7 -8.7L0 -4.7L7 -8.7L11.1 -1.7Z" transform="translate(847 383)"></path><path d="M0.5 0.3L0.5 1.4L-0.5 1.4L-0.5 0.3L-1.5 -0.2L-0.9 -1.2L0 -0.6L0.9 -1.2L1.5 -0.2Z" transform="translate(465 513)"></path><path d="M3 1.7L3 7.7L-3 7.7L-3 1.7L-8.1 -1.3L-5.1 -6.4L0 -3.4L5.1 -6.4L8.1 -1.3Z" transform="translate(891 565)"></path><path d="M2.4 1.4L2.4 6.3L-2.4 6.3L-2.4 1.4L-6.6 -1L-4.2 -5.2L0 -2.8L4.2 -5.2L6.6 -1Z" transform="translate(562 158)"></path><path d="M5.4 3.1L5.4 13.9L-5.4 13.9L-5.4 3.1L-14.7 -2.3L-9.3 -11.6L0 -6.2L9.3 -11.6L14.7 -2.3Z" transform="translate(401 495)"></path><path d="M0.3 0.2L0.3 0.7L-0.3 0.7L-0.3 0.2L-0.7 -0.1L-0.5 -0.6L0 -0.3L0.5 -0.6L0.7 -0.1Z" transform="translate(677 401)"></path><path d="M0.8 0.5L0.8 2.1L-0.8 2.1L-0.8 0.5L-2.2 -0.3L-1.4 -1.7L0 -0.9L1.4 -1.7L2.2 -0.3Z" transform="translate(291 453)"></path><path d="M5.4 3.1L5.4 13.9L-5.4 13.9L-5.4 3.1L-14.7 -2.3L-9.3 -11.6L0 -6.2L9.3 -11.6L14.7 -2.3Z" transform="translate(581 560)"></path><path d="M1.1 0.6L1.1 2.8L-1.1 2.8L-1.1 0.6L-2.9 -0.5L-1.9 -2.3L0 -1.2L1.9 -2.3L2.9 -0.5Z" transform="translate(236 16)"></path><path d="M4 2.3L4 10.4L-4 10.4L-4 2.3L-11.1 -1.7L-7 -8.7L0 -4.7L7 -8.7L11.1 -1.7Z" transform="translate(834 153)"></path><path d="M5.4 3.1L5.4 13.9L-5.4 13.9L-5.4 3.1L-14.7 -2.3L-9.3 -11.6L0 -6.2L9.3 -11.6L14.7 -2.3Z" transform="translate(312 133)"></path><path d="M2.7 1.6L2.7 7L-2.7 7L-2.7 1.6L-7.4 -1.1L-4.7 -5.8L0 -3.1L4.7 -5.8L7.4 -1.1Z" transform="translate(876 517)"></path><path d="M4.9 2.8L4.9 12.5L-4.9 12.5L-4.9 2.8L-13.3 -2.1L-8.4 -10.5L0 -5.6L8.4 -10.5L13.3 -2.1Z" transform="translate(778 568)"></path><path d="M0.5 0.3L0.5 1.4L-0.5 1.4L-0.5 0.3L-1.5 -0.2L-0.9 -1.2L0 -0.6L0.9 -1.2L1.5 -0.2Z" transform="translate(757 503)"></path><path d="M2.7 1.6L2.7 7L-2.7 7L-2.7 1.6L-7.4 -1.1L-4.7 -5.8L0 -3.1L4.7 -5.8L7.4 -1.1Z" transform="translate(313 399)"></path><path d="M4.3 2.5L4.3 11.1L-4.3 11.1L-4.3 2.5L-11.8 -1.8L-7.5 -9.3L0 -5L7.5 -9.3L11.8 -1.8Z" transform="translate(105 443)"></path><path d="M4.6 2.6L4.6 11.8L-4.6 11.8L-4.6 2.6L-12.5 -1.9L-7.9 -9.9L0 -5.3L7.9 -9.9L12.5 -1.9Z" transform="translate(56 15)"></path><path d="M4 2.3L4 10.4L-4 10.4L-4 2.3L-11.1 -1.7L-7 -8.7L0 -4.7L7 -8.7L11.1 -1.7Z" transform="translate(12 2)"></path><path d="M3.5 2L3.5 9L-3.5 9L-3.5 2L-9.6 -1.5L-6.1 -7.6L0 -4.1L6.1 -7.6L9.6 -1.5Z" transform="translate(69 414)"></path><path d="M3.8 2.2L3.8 9.7L-3.8 9.7L-3.8 2.2L-10.3 -1.6L-6.5 -8.1L0 -4.4L6.5 -8.1L10.3 -1.6Z" transform="translate(472 345)"></path><path d="M4.6 2.6L4.6 11.8L-4.6 11.8L-4.6 2.6L-12.5 -1.9L-7.9 -9.9L0 -5.3L7.9 -9.9L12.5 -1.9Z" transform="translate(895 350)"></path><path d="M4.3 2.5L4.3 11.1L-4.3 11.1L-4.3 2.5L-11.8 -1.8L-7.5 -9.3L0 -5L7.5 -9.3L11.8 -1.8Z" transform="translate(700 40)"></path><path d="M4.9 2.8L4.9 12.5L-4.9 12.5L-4.9 2.8L-13.3 -2.1L-8.4 -10.5L0 -5.6L8.4 -10.5L13.3 -2.1Z" transform="translate(118 216)"></path><path d="M1.6 0.9L1.6 4.2L-1.6 4.2L-1.6 0.9L-4.4 -0.7L-2.8 -3.5L0 -1.9L2.8 -3.5L4.4 -0.7Z" transform="translate(212 582)"></path><path d="M3.8 2.2L3.8 9.7L-3.8 9.7L-3.8 2.2L-10.3 -1.6L-6.5 -8.1L0 -4.4L6.5 -8.1L10.3 -1.6Z" transform="translate(858 466)"></path><path d="M4.9 2.8L4.9 12.5L-4.9 12.5L-4.9 2.8L-13.3 -2.1L-8.4 -10.5L0 -5.6L8.4 -10.5L13.3 -2.1Z" transform="translate(534 446)"></path><path d="M3 1.7L3 7.7L-3 7.7L-3 1.7L-8.1 -1.3L-5.1 -6.4L0 -3.4L5.1 -6.4L8.1 -1.3Z" transform="translate(553 599)"></path><path d="M3.8 2.2L3.8 9.7L-3.8 9.7L-3.8 2.2L-10.3 -1.6L-6.5 -8.1L0 -4.4L6.5 -8.1L10.3 -1.6Z" transform="translate(13 483)"></path><path d="M5.1 3L5.1 13.2L-5.1 13.2L-5.1 3L-14 -2.2L-8.9 -11L0 -5.9L8.9 -11L14 -2.2Z" transform="translate(877 271)"></path><path d="M3.2 1.9L3.2 8.3L-3.2 8.3L-3.2 1.9L-8.8 -1.4L-5.6 -7L0 -3.7L5.6 -7L8.8 -1.4Z" transform="translate(697 241)"></path><path d="M3.5 2L3.5 9L-3.5 9L-3.5 2L-9.6 -1.5L-6.1 -7.6L0 -4.1L6.1 -7.6L9.6 -1.5Z" transform="translate(77 343)"></path><path d="M5.1 3L5.1 13.2L-5.1 13.2L-5.1 3L-14 -2.2L-8.9 -11L0 -5.9L8.9 -11L14 -2.2Z" transform="translate(390 103)"></path><path d="M1.1 0.6L1.1 2.8L-1.1 2.8L-1.1 0.6L-2.9 -0.5L-1.9 -2.3L0 -1.2L1.9 -2.3L2.9 -0.5Z" transform="translate(346 295)"></path><path d="M1.1 0.6L1.1 2.8L-1.1 2.8L-1.1 0.6L-2.9 -0.5L-1.9 -2.3L0 -1.2L1.9 -2.3L2.9 -0.5Z" transform="translate(324 205)"></path><path d="M5.4 3.1L5.4 13.9L-5.4 13.9L-5.4 3.1L-14.7 -2.3L-9.3 -11.6L0 -6.2L9.3 -11.6L14.7 -2.3Z" transform="translate(75 535)"></path><path d="M5.1 3L5.1 13.2L-5.1 13.2L-5.1 3L-14 -2.2L-8.9 -11L0 -5.9L8.9 -11L14 -2.2Z" transform="translate(832 430)"></path><path d="M1.3 0.8L1.3 3.5L-1.3 3.5L-1.3 0.8L-3.7 -0.6L-2.3 -2.9L0 -1.6L2.3 -2.9L3.7 -0.6Z" transform="translate(417 278)"></path><path d="M4 2.3L4 10.4L-4 10.4L-4 2.3L-11.1 -1.7L-7 -8.7L0 -4.7L7 -8.7L11.1 -1.7Z" transform="translate(632 164)"></path><path d="M2.2 1.2L2.2 5.6L-2.2 5.6L-2.2 1.2L-5.9 -0.9L-3.7 -4.7L0 -2.5L3.7 -4.7L5.9 -0.9Z" transform="translate(184 18)"></path><path d="M0.8 0.5L0.8 2.1L-0.8 2.1L-0.8 0.5L-2.2 -0.3L-1.4 -1.7L0 -0.9L1.4 -1.7L2.2 -0.3Z" transform="translate(354 597)"></path><path d="M3.8 2.2L3.8 9.7L-3.8 9.7L-3.8 2.2L-10.3 -1.6L-6.5 -8.1L0 -4.4L6.5 -8.1L10.3 -1.6Z" transform="translate(709 497)"></path><path d="M4.6 2.6L4.6 11.8L-4.6 11.8L-4.6 2.6L-12.5 -1.9L-7.9 -9.9L0 -5.3L7.9 -9.9L12.5 -1.9Z" transform="translate(353 531)"></path><path d="M1.9 1.1L1.9 4.9L-1.9 4.9L-1.9 1.1L-5.2 -0.8L-3.3 -4.1L0 -2.2L3.3 -4.1L5.2 -0.8Z" transform="translate(864 18)"></path><path d="M4.3 2.5L4.3 11.1L-4.3 11.1L-4.3 2.5L-11.8 -1.8L-7.5 -9.3L0 -5L7.5 -9.3L11.8 -1.8Z" transform="translate(429 72)"></path><path d="M0.5 0.3L0.5 1.4L-0.5 1.4L-0.5 0.3L-1.5 -0.2L-0.9 -1.2L0 -0.6L0.9 -1.2L1.5 -0.2Z" transform="translate(67 199)"></path><path d="M1.3 0.8L1.3 3.5L-1.3 3.5L-1.3 0.8L-3.7 -0.6L-2.3 -2.9L0 -1.6L2.3 -2.9L3.7 -0.6Z" transform="translate(9 537)"></path><path d="M0.8 0.5L0.8 2.1L-0.8 2.1L-0.8 0.5L-2.2 -0.3L-1.4 -1.7L0 -0.9L1.4 -1.7L2.2 -0.3Z" transform="translate(181 336)"></path><path d="M0.5 0.3L0.5 1.4L-0.5 1.4L-0.5 0.3L-1.5 -0.2L-0.9 -1.2L0 -0.6L0.9 -1.2L1.5 -0.2Z" transform="translate(8 220)"></path><path d="M5.4 3.1L5.4 13.9L-5.4 13.9L-5.4 3.1L-14.7 -2.3L-9.3 -11.6L0 -6.2L9.3 -11.6L14.7 -2.3Z" transform="translate(392 448)"></path><path d="M2.2 1.2L2.2 5.6L-2.2 5.6L-2.2 1.2L-5.9 -0.9L-3.7 -4.7L0 -2.5L3.7 -4.7L5.9 -0.9Z" transform="translate(803 18)"></path><path d="M2.2 1.2L2.2 5.6L-2.2 5.6L-2.2 1.2L-5.9 -0.9L-3.7 -4.7L0 -2.5L3.7 -4.7L5.9 -0.9Z" transform="translate(256 579)"></path><path d="M2.2 1.2L2.2 5.6L-2.2 5.6L-2.2 1.2L-5.9 -0.9L-3.7 -4.7L0 -2.5L3.7 -4.7L5.9 -0.9Z" transform="translate(512 184)"></path><path d="M0.5 0.3L0.5 1.4L-0.5 1.4L-0.5 0.3L-1.5 -0.2L-0.9 -1.2L0 -0.6L0.9 -1.2L1.5 -0.2Z" transform="translate(585 198)"></path><path d="M3.2 1.9L3.2 8.3L-3.2 8.3L-3.2 1.9L-8.8 -1.4L-5.6 -7L0 -3.7L5.6 -7L8.8 -1.4Z" transform="translate(564 408)"></path><path d="M2.2 1.2L2.2 5.6L-2.2 5.6L-2.2 1.2L-5.9 -0.9L-3.7 -4.7L0 -2.5L3.7 -4.7L5.9 -0.9Z" transform="translate(268 120)"></path><path d="M4.6 2.6L4.6 11.8L-4.6 11.8L-4.6 2.6L-12.5 -1.9L-7.9 -9.9L0 -5.3L7.9 -9.9L12.5 -1.9Z" transform="translate(290 4)"></path><path d="M3.2 1.9L3.2 8.3L-3.2 8.3L-3.2 1.9L-8.8 -1.4L-5.6 -7L0 -3.7L5.6 -7L8.8 -1.4Z" transform="translate(78 594)"></path><path d="M4 2.3L4 10.4L-4 10.4L-4 2.3L-11.1 -1.7L-7 -8.7L0 -4.7L7 -8.7L11.1 -1.7Z" transform="translate(659 282)"></path><path d="M4.9 2.8L4.9 12.5L-4.9 12.5L-4.9 2.8L-13.3 -2.1L-8.4 -10.5L0 -5.6L8.4 -10.5L13.3 -2.1Z" transform="translate(366 359)"></path><path d="M2.2 1.2L2.2 5.6L-2.2 5.6L-2.2 1.2L-5.9 -0.9L-3.7 -4.7L0 -2.5L3.7 -4.7L5.9 -0.9Z" transform="translate(848 588)"></path><path d="M3.5 2L3.5 9L-3.5 9L-3.5 2L-9.6 -1.5L-6.1 -7.6L0 -4.1L6.1 -7.6L9.6 -1.5Z" transform="translate(166 588)"></path><path d="M4 2.3L4 10.4L-4 10.4L-4 2.3L-11.1 -1.7L-7 -8.7L0 -4.7L7 -8.7L11.1 -1.7Z" transform="translate(147 535)"></path><path d="M3.8 2.2L3.8 9.7L-3.8 9.7L-3.8 2.2L-10.3 -1.6L-6.5 -8.1L0 -4.4L6.5 -8.1L10.3 -1.6Z" transform="translate(843 218)"></path><path d="M0.8 0.5L0.8 2.1L-0.8 2.1L-0.8 0.5L-2.2 -0.3L-1.4 -1.7L0 -0.9L1.4 -1.7L2.2 -0.3Z" transform="translate(2 419)"></path><path d="M5.4 3.1L5.4 13.9L-5.4 13.9L-5.4 3.1L-14.7 -2.3L-9.3 -11.6L0 -6.2L9.3 -11.6L14.7 -2.3Z" transform="translate(736 262)"></path><path d="M2.7 1.6L2.7 7L-2.7 7L-2.7 1.6L-7.4 -1.1L-4.7 -5.8L0 -3.1L4.7 -5.8L7.4 -1.1Z" transform="translate(606 93)"></path><path d="M4.3 2.5L4.3 11.1L-4.3 11.1L-4.3 2.5L-11.8 -1.8L-7.5 -9.3L0 -5L7.5 -9.3L11.8 -1.8Z" transform="translate(472 598)"></path><path d="M5.1 3L5.1 13.2L-5.1 13.2L-5.1 3L-14 -2.2L-8.9 -11L0 -5.9L8.9 -11L14 -2.2Z" transform="translate(577 475)"></path><path d="M5.4 3.1L5.4 13.9L-5.4 13.9L-5.4 3.1L-14.7 -2.3L-9.3 -11.6L0 -6.2L9.3 -11.6L14.7 -2.3Z" transform="translate(104 503)"></path><path d="M5.4 3.1L5.4 13.9L-5.4 13.9L-5.4 3.1L-14.7 -2.3L-9.3 -11.6L0 -6.2L9.3 -11.6L14.7 -2.3Z" transform="translate(312 77)"></path><path d="M3.2 1.9L3.2 8.3L-3.2 8.3L-3.2 1.9L-8.8 -1.4L-5.6 -7L0 -3.7L5.6 -7L8.8 -1.4Z" transform="translate(636 5)"></path><path d="M1.6 0.9L1.6 4.2L-1.6 4.2L-1.6 0.9L-4.4 -0.7L-2.8 -3.5L0 -1.9L2.8 -3.5L4.4 -0.7Z" transform="translate(620 349)"></path><path d="M3.8 2.2L3.8 9.7L-3.8 9.7L-3.8 2.2L-10.3 -1.6L-6.5 -8.1L0 -4.4L6.5 -8.1L10.3 -1.6Z" transform="translate(427 598)"></path><path d="M1.6 0.9L1.6 4.2L-1.6 4.2L-1.6 0.9L-4.4 -0.7L-2.8 -3.5L0 -1.9L2.8 -3.5L4.4 -0.7Z" transform="translate(266 415)"></path><path d="M4.9 2.8L4.9 12.5L-4.9 12.5L-4.9 2.8L-13.3 -2.1L-8.4 -10.5L0 -5.6L8.4 -10.5L13.3 -2.1Z" transform="translate(716 342)"></path><path d="M1.3 0.8L1.3 3.5L-1.3 3.5L-1.3 0.8L-3.7 -0.6L-2.3 -2.9L0 -1.6L2.3 -2.9L3.7 -0.6Z" transform="translate(159 170)"></path><path d="M5.4 3.1L5.4 13.9L-5.4 13.9L-5.4 3.1L-14.7 -2.3L-9.3 -11.6L0 -6.2L9.3 -11.6L14.7 -2.3Z" transform="translate(541 27)"></path><path d="M0.5 0.3L0.5 1.4L-0.5 1.4L-0.5 0.3L-1.5 -0.2L-0.9 -1.2L0 -0.6L0.9 -1.2L1.5 -0.2Z" transform="translate(896 162)"></path><path d="M3.8 2.2L3.8 9.7L-3.8 9.7L-3.8 2.2L-10.3 -1.6L-6.5 -8.1L0 -4.4L6.5 -8.1L10.3 -1.6Z" transform="translate(11 119)"></path><path d="M2.2 1.2L2.2 5.6L-2.2 5.6L-2.2 1.2L-5.9 -0.9L-3.7 -4.7L0 -2.5L3.7 -4.7L5.9 -0.9Z" transform="translate(740 208)"></path><path d="M3.2 1.9L3.2 8.3L-3.2 8.3L-3.2 1.9L-8.8 -1.4L-5.6 -7L0 -3.7L5.6 -7L8.8 -1.4Z" transform="translate(102 12)"></path><path d="M0.8 0.5L0.8 2.1L-0.8 2.1L-0.8 0.5L-2.2 -0.3L-1.4 -1.7L0 -0.9L1.4 -1.7L2.2 -0.3Z" transform="translate(222 350)"></path><path d="M3.5 2L3.5 9L-3.5 9L-3.5 2L-9.6 -1.5L-6.1 -7.6L0 -4.1L6.1 -7.6L9.6 -1.5Z" transform="translate(31 338)"></path><path d="M3.2 1.9L3.2 8.3L-3.2 8.3L-3.2 1.9L-8.8 -1.4L-5.6 -7L0 -3.7L5.6 -7L8.8 -1.4Z" transform="translate(62 59)"></path><path d="M0.5 0.3L0.5 1.4L-0.5 1.4L-0.5 0.3L-1.5 -0.2L-0.9 -1.2L0 -0.6L0.9 -1.2L1.5 -0.2Z" transform="translate(742 594)"></path><path d="M0.8 0.5L0.8 2.1L-0.8 2.1L-0.8 0.5L-2.2 -0.3L-1.4 -1.7L0 -0.9L1.4 -1.7L2.2 -0.3Z" transform="translate(724 1)"></path><path d="M0.8 0.5L0.8 2.1L-0.8 2.1L-0.8 0.5L-2.2 -0.3L-1.4 -1.7L0 -0.9L1.4 -1.7L2.2 -0.3Z" transform="translate(769 423)"></path><path d="M4.9 2.8L4.9 12.5L-4.9 12.5L-4.9 2.8L-13.3 -2.1L-8.4 -10.5L0 -5.6L8.4 -10.5L13.3 -2.1Z" transform="translate(116 99)"></path><path d="M1.9 1.1L1.9 4.9L-1.9 4.9L-1.9 1.1L-5.2 -0.8L-3.3 -4.1L0 -2.2L3.3 -4.1L5.2 -0.8Z" transform="translate(297 498)"></path><path d="M2.4 1.4L2.4 6.3L-2.4 6.3L-2.4 1.4L-6.6 -1L-4.2 -5.2L0 -2.8L4.2 -5.2L6.6 -1Z" transform="translate(677 598)"></path><path d="M0.3 0.2L0.3 0.7L-0.3 0.7L-0.3 0.2L-0.7 -0.1L-0.5 -0.6L0 -0.3L0.5 -0.6L0.7 -0.1Z" transform="translate(899 47)"></path></g></svg>